<svg width="161" height="25" viewBox="0 0 161 25" fill="none" xmlns="http://www.w3.org/2000/svg">
<path d="M32.1898 14.1666H20.5369L20.1193 14.4953V24.6653H23.3251V20.837L23.619 20.5515H32.1898C34.3572 20.5515 35.3544 19.9777 35.3544 18.5067V16.1683C35.3544 14.7378 34.3572 14.1666 32.1898 14.1666ZM32.1898 17.9248C32.1898 18.6199 31.731 18.733 30.6899 18.733H23.674L23.3388 18.4474V16.2922L23.6328 16.0066H30.7119C31.7118 16.0066 32.2118 16.1279 32.2118 16.8149V17.9167L32.1898 17.9248Z" fill="white"/>
<path d="M41.277 16.0875L44.068 20.0908L43.9004 20.4599H37.736L36.1537 22.378H45.3179L45.9826 22.7471L47.4001 24.6653H51.1059L42.9856 14.0454" fill="white"/>
<path d="M78.0543 22.6232V19.7648L78.3894 19.4793H84.595V17.6823H74.7661V24.6653H89.2595V22.8684H78.4307" fill="white"/>
<path d="M89.3858 14.1693H74.7661V16.1306H89.3858V14.1693Z" fill="white"/>
<path d="M58.4816 16.0471H70.2691C70.1015 14.5761 69.1428 14.1613 66.8106 14.1613H58.3552C55.6906 14.1613 54.8555 14.6516 54.8555 16.6532V22.2137C54.8555 24.175 55.6796 24.7057 58.3552 24.7057H66.8023C69.1758 24.7057 70.0988 24.2558 70.1757 22.7444H58.4733L58.1382 22.4185V16.2922" fill="white"/>
<path d="M12.2051 18.2508H3.66729L3.41731 17.9652V16.1683L3.66729 15.9636H15.2048L15.3697 15.5972C14.9961 14.6165 13.9549 14.1262 12.0732 14.1262H4.04089C1.37626 14.1262 0.543913 14.6165 0.543913 16.6182V17.8036C0.543913 19.7621 1.36802 20.2956 4.04089 20.2956H12.5814L12.8314 20.5407V22.4265L12.6226 22.7121H0.293932C0.293932 22.7121 0 22.8764 0 22.9168C0.208775 24.307 1.16749 24.6734 3.45852 24.6734H12.2051C14.8697 24.6734 15.746 24.183 15.746 22.1814V20.7428C15.746 18.7842 14.8697 18.2508 12.2051 18.2508Z" fill="white"/>
<path d="M98.591 14.1262H93.759L93.509 14.6165L98.841 18.4555C99.8409 17.8844 100.964 17.3133 102.137 16.7394" fill="white"/>
<path d="M102.923 21.3166L107.629 24.6653H112.461L112.67 24.2154L105.673 19.191C104.755 19.8861 103.797 20.5811 102.926 21.3166" fill="white"/>
<path d="M97.8824 24.6653H93.5091L93.1355 24.0941C96.0913 21.2735 109.343 9.27697 138.118 8C138.118 8 172.12 -7.85707 156 8" fill="#B2B0B2"/>
</svg>
